<?xml version="1.0" encoding="utf-8"?>
<svg width="512px" height="512px" viewBox="0 0 512 512" version="1.1" xmlns:xlink="http://www.w3.org/1999/xlink" xmlns="http://www.w3.org/2000/svg">
  <defs>
    <path d="M512 0L512 0L512 512L0 512L0 0L512 0Z" id="path_1" />
    <clipPath id="clip_1">
      <use xlink:href="#path_1" />
    </clipPath>
  </defs>
  <g id="Frame" clip-path="url(#clip_1)">
    <path d="M512 0L512 0L512 512L0 512L0 0L512 0Z" id="Frame" fill="none" stroke="none" />
    <path d="M0 258.5C0 118.496 114.615 5 256 5C397.385 5 512 118.496 512 258.5C512 398.504 397.385 512 256 512C114.615 512 0 398.504 0 258.5Z" id="Oval" fill="#191919" fill-rule="evenodd" stroke="none" />
    <path d="M182.25 325.325L108 280.775L182.25 236.225L256.5 280.775L256.5 362.45L182.25 407L182.25 325.325L182.25 325.325L182.25 325.325L182.25 325.325ZM108 280.775L108 362.45M108 362.45L182.25 407M182.25 325.993L256.5 280.998M330.75 325.325L256.5 280.775L330.75 236.225L405 280.775L405 362.45L330.75 407L330.75 325.325L330.75 325.325L330.75 325.325L330.75 325.325ZM256.5 362.45L330.75 407M330.75 325.325L405 280.775M256.5 280.775L256.5 199.1M256.5 199.1L182.25 154.55M182.25 154.55L256.5 110M256.5 110L330.75 154.55M330.75 154.55L330.75 236.225M182.25 154.995L182.25 236.002M256.5 199.1L330.75 154.55" id="Mask" fill="none" stroke="#FFFFFF" stroke-width="14" stroke-linecap="round" stroke-linejoin="round" />
  </g>
</svg>